<svg id="svg" width="400" height="400" xmlns="http://www.w3.org/2000/svg" viewBox="0 0 400 400" style="z-index: 1;"><rect x="2" y="168" width="23" height="44" fill="green" stroke="gray" stroke-width="2px"></rect><rect x="24" y="168" width="23" height="44" fill="green" stroke="gray" stroke-width="2px"></rect><rect x="46" y="168" width="23" height="44" fill="green" stroke="gray" stroke-width="2px"></rect><rect x="68" y="168" width="23" height="44" fill="green" stroke="gray" stroke-width="2px"></rect><rect x="90" y="168" width="23" height="44" fill="green" stroke="gray" stroke-width="2px"></rect><rect x="2" y="212" width="23" height="44" fill="green" stroke="gray" stroke-width="2px"></rect><rect x="24" y="212" width="23" height="44" fill="green" stroke="gray" stroke-width="2px"></rect><rect x="46" y="212" width="23" height="44" fill="green" stroke="gray" stroke-width="2px"></rect><rect x="68" y="212" width="23" height="44" fill="green" stroke="gray" stroke-width="2px"></rect><rect x="90" y="212" width="23" height="44" fill="green" stroke="gray" stroke-width="2px"></rect><g fill="blue"><circle cx="208" cy="212" r="48"></circle><circle cx="360" cy="140" r="48"></circle><path d="M 197 165 L 342 94 L 374 187 L 216 260 Z"></path></g><path d="M 220 300 Q 290 208 356 300 L 286 300 L 286 310 C 302 320 266 320 282 310 L 282 300 Z " fill="blue"></path><rect x="286" y="168" width="23" height="44" fill="green" stroke="gray" stroke-width="2px"></rect><rect x="308" y="168" width="23" height="44" fill="green" stroke="gray" stroke-width="2px"></rect><rect x="330" y="168" width="23" height="44" fill="green" stroke="gray" stroke-width="2px"></rect><rect x="352" y="168" width="23" height="44" fill="green" stroke="gray" stroke-width="2px"></rect><rect x="374" y="168" width="23" height="44" fill="green" stroke="gray" stroke-width="2px"></rect><rect x="286" y="212" width="23" height="44" fill="green" stroke="gray" stroke-width="2px"></rect><rect x="308" y="212" width="23" height="44" fill="green" stroke="gray" stroke-width="2px"></rect><rect x="330" y="212" width="23" height="44" fill="green" stroke="gray" stroke-width="2px"></rect><rect x="352" y="212" width="23" height="44" fill="green" stroke="gray" stroke-width="2px"></rect><rect x="374" y="212" width="23" height="44" fill="green" stroke="gray" stroke-width="2px"></rect><path d="M 115 168 L 159 213 L 115 258 L 115 252 L 153 213 L 115 174Z" fill="red"></path><path d="M 286 168 L 242 213 L 286 258 L 286 252 L 248 213 L 286 174Z" fill="red"></path><g><rect x="149" y="149" width="100" height="140" fill="orange"></rect><path d="M 149 167 L 249 167 M 169 149 L 169 289" stroke="red"></path><g stroke="red"><path d="M 144 157 L 157 157 M 144 161 L 157 161"></path><path d="M 144 172 L 157 172 M 144 176 L 157 176"></path><path d="M 144 187 L 157 187 M 144 191 L 157 191"></path><path d="M 144 202 L 157 202 M 144 206 L 157 206"></path><path d="M 144 217 L 157 217 M 144 221 L 157 221"></path><path d="M 144 232 L 157 232 M 144 236 L 157 236"></path><path d="M 144 247 L 157 247 M 144 251 L 157 251"></path><path d="M 144 262 L 157 262 M 144 266 L 157 266"></path><path d="M 144 277 L 157 277 M 144 281 L 157 281"></path></g></g><rect x="2" y="168" width="23" height="44" fill="green" stroke="gray" stroke-width="2px"></rect><rect x="24" y="168" width="23" height="44" fill="green" stroke="gray" stroke-width="2px"></rect><rect x="46" y="168" width="23" height="44" fill="green" stroke="gray" stroke-width="2px"></rect><rect x="68" y="168" width="23" height="44" fill="green" stroke="gray" stroke-width="2px"></rect><rect x="90" y="168" width="23" height="44" fill="green" stroke="gray" stroke-width="2px"></rect><rect x="2" y="212" width="23" height="44" fill="green" stroke="gray" stroke-width="2px"></rect><rect x="24" y="212" width="23" height="44" fill="green" stroke="gray" stroke-width="2px"></rect><rect x="46" y="212" width="23" height="44" fill="green" stroke="gray" stroke-width="2px"></rect><rect x="68" y="212" width="23" height="44" fill="green" stroke="gray" stroke-width="2px"></rect><rect x="90" y="212" width="23" height="44" fill="green" stroke="gray" stroke-width="2px"></rect><g fill="blue"><circle cx="208" cy="212" r="48"></circle><circle cx="360" cy="140" r="48"></circle><path d="M 197 165 L 342 94 L 374 187 L 216 260 Z"></path></g><path d="M 220 300 Q 290 208 356 300 L 286 300 L 286 310 C 302 320 266 320 282 310 L 282 300 Z " fill="blue"></path><rect x="286" y="168" width="23" height="44" fill="green" stroke="gray" stroke-width="2px"></rect><rect x="308" y="168" width="23" height="44" fill="green" stroke="gray" stroke-width="2px"></rect><rect x="330" y="168" width="23" height="44" fill="green" stroke="gray" stroke-width="2px"></rect><rect x="352" y="168" width="23" height="44" fill="green" stroke="gray" stroke-width="2px"></rect><rect x="374" y="168" width="23" height="44" fill="green" stroke="gray" stroke-width="2px"></rect><rect x="286" y="212" width="23" height="44" fill="green" stroke="gray" stroke-width="2px"></rect><rect x="308" y="212" width="23" height="44" fill="green" stroke="gray" stroke-width="2px"></rect><rect x="330" y="212" width="23" height="44" fill="green" stroke="gray" stroke-width="2px"></rect><rect x="352" y="212" width="23" height="44" fill="green" stroke="gray" stroke-width="2px"></rect><rect x="374" y="212" width="23" height="44" fill="green" stroke="gray" stroke-width="2px"></rect><path d="M 115 168 L 159 213 L 115 258 L 115 252 L 153 213 L 115 174Z" fill="red"></path><path d="M 286 168 L 242 213 L 286 258 L 286 252 L 248 213 L 286 174Z" fill="red"></path><g><rect x="149" y="149" width="100" height="140" fill="orange"></rect><path d="M 149 167 L 249 167 M 169 149 L 169 289" stroke="red"></path><g stroke="red"><path d="M 144 157 L 157 157 M 144 161 L 157 161"></path><path d="M 144 172 L 157 172 M 144 176 L 157 176"></path><path d="M 144 187 L 157 187 M 144 191 L 157 191"></path><path d="M 144 202 L 157 202 M 144 206 L 157 206"></path><path d="M 144 217 L 157 217 M 144 221 L 157 221"></path><path d="M 144 232 L 157 232 M 144 236 L 157 236"></path><path d="M 144 247 L 157 247 M 144 251 L 157 251"></path><path d="M 144 262 L 157 262 M 144 266 L 157 266"></path><path d="M 144 277 L 157 277 M 144 281 L 157 281"></path></g></g></svg>